<?xml version="1.0" encoding="utf-8"?>

<!-- Uploaded to: SVG Repo, www.svgrepo.com, Generator: SVG Repo Mixer Tools -->
<svg version="1.1" id="Icons" xmlns="http://www.w3.org/2000/svg" xmlns:xlink="http://www.w3.org/1999/xlink" 
	 viewBox="0 0 32 32" xml:space="preserve">
<style type="text/css">
	.st0{fill:none;stroke:#000000;stroke-width:2;stroke-linejoin:round;stroke-miterlimit:10;}
	.st1{fill:none;stroke:#000000;stroke-width:2;stroke-linecap:round;stroke-linejoin:round;stroke-miterlimit:10;}
	.st2{fill:none;stroke:#000000;stroke-width:2;stroke-miterlimit:10;}
</style>
<path class="st0" d="M12.6,21.7c-0.3,0.3-0.6,0.7-0.8,1.1c-1.2-1-2.4-2.1-3.4-3.4c0.4-0.2,0.8-0.5,1.1-0.8c1.4-1.4,0.9-3.2-0.5-4.6
	s-3.2-1.9-4.6-0.5s-1.6,4-0.5,5.6c2,3.1,5.1,6.1,8.2,8.2c1.7,1.1,4.2,0.9,5.6-0.5c1.4-1.4,0.9-3.2-0.5-4.6
	C15.8,20.8,14.1,20.3,12.6,21.7z"/>
<path class="st0" d="M22,25.9c4.1-1.9,7-6.1,7-10.9c0-6.6-5.4-12-12-12C12.6,3,8.7,5.4,6.6,9"/>
<path class="st0" d="M13,11.9l0.4-0.4c0.7-0.7,1.8-0.7,2.5,0l0,0c0.7,0.7,0.7,1.8,0,2.5L13,17h4"/>
<polyline class="st0" points="22,15 19,15 23,11 23,18 "/>
</svg>